<svg width="60" height="60" viewBox="0 0 60 60" fill="none" xmlns="http://www.w3.org/2000/svg">
<g filter="url(#filter0_d_162_952)">
<rect x="10" y="9" width="40" height="40" fill="white"/>
</g>
<path d="M40.1618 22.6559C39.3984 22.9936 38.5888 23.2154 37.7598 23.3139C38.6336 22.7914 39.2875 21.9689 39.5998 20.9999C38.7798 21.4879 37.8808 21.8299 36.9438 22.0149C36.3144 21.3415 35.4802 20.8949 34.5708 20.7445C33.6614 20.5941 32.7277 20.7484 31.9151 21.1834C31.1024 21.6183 30.4562 22.3096 30.0769 23.1497C29.6976 23.9898 29.6066 24.9317 29.8178 25.8289C28.1549 25.7456 26.5281 25.3134 25.0431 24.5606C23.5581 23.8077 22.2479 22.751 21.1978 21.4589C20.8261 22.0974 20.6308 22.8232 20.6318 23.5619C20.6318 25.0119 21.3698 26.2929 22.4918 27.0429C21.8278 27.022 21.1784 26.8427 20.5978 26.5199V26.5719C20.598 27.5376 20.9322 28.4735 21.5437 29.221C22.1551 29.9684 23.0063 30.4814 23.9528 30.6729C23.3364 30.84 22.6901 30.8646 22.0628 30.7449C22.3297 31.5762 22.8498 32.3031 23.5504 32.824C24.251 33.3449 25.0969 33.6337 25.9698 33.6499C25.1023 34.3313 24.109 34.8349 23.0467 35.1321C21.9844 35.4293 20.8739 35.5142 19.7788 35.3819C21.6905 36.6114 23.9159 37.264 26.1888 37.2619C33.8818 37.2619 38.0888 30.8889 38.0888 25.3619C38.0888 25.1819 38.0838 24.9999 38.0758 24.8219C38.8947 24.2301 39.6014 23.4969 40.1628 22.6569L40.1618 22.6559Z" fill="#FF5300"/>
<defs>
<filter id="filter0_d_162_952" x="0" y="0" width="60" height="60" filterUnits="userSpaceOnUse" color-interpolation-filters="sRGB">
<feFlood flood-opacity="0" result="BackgroundImageFix"/>
<feColorMatrix in="SourceAlpha" type="matrix" values="0 0 0 0 0 0 0 0 0 0 0 0 0 0 0 0 0 0 127 0" result="hardAlpha"/>
<feOffset dy="1"/>
<feGaussianBlur stdDeviation="5"/>
<feColorMatrix type="matrix" values="0 0 0 0 0 0 0 0 0 0 0 0 0 0 0 0 0 0 0.1 0"/>
<feBlend mode="normal" in2="BackgroundImageFix" result="effect1_dropShadow_162_952"/>
<feBlend mode="normal" in="SourceGraphic" in2="effect1_dropShadow_162_952" result="shape"/>
</filter>
</defs>
</svg>
